<svg width="1019" height="178" viewBox="0 0 1019 178" fill="none" xmlns="http://www.w3.org/2000/svg">
<path d="M174.046 88.5C174.046 99.734 171.833 110.858 167.534 121.237C163.235 131.616 156.934 141.046 148.99 148.99C141.046 156.934 131.616 163.235 121.237 167.534C110.858 171.833 99.734 174.046 88.5 174.046C77.266 174.046 66.142 171.833 55.7631 167.534C45.3842 163.235 35.9537 156.934 28.01 148.99C20.0664 141.046 13.7651 131.616 9.46606 121.237C5.16699 110.858 2.95428 99.734 2.95429 88.5" stroke="#10130F" stroke-width="5.90857"/>
<path d="M517.046 88.5C517.046 99.734 514.833 110.858 510.534 121.237C506.235 131.616 499.934 141.046 491.99 148.99C484.046 156.934 474.616 163.235 464.237 167.534C453.858 171.833 442.734 174.046 431.5 174.046C420.266 174.046 409.142 171.833 398.763 167.534C388.384 163.235 378.954 156.934 371.01 148.99C363.066 141.046 356.765 131.616 352.466 121.237C348.167 110.858 345.954 99.734 345.954 88.5" stroke="#10130F" stroke-width="5.90857"/>
<path d="M859.046 88.5C859.046 99.734 856.833 110.858 852.534 121.237C848.235 131.616 841.934 141.046 833.99 148.99C826.046 156.934 816.616 163.235 806.237 167.534C795.858 171.833 784.734 174.046 773.5 174.046C762.266 174.046 751.142 171.833 740.763 167.534C730.384 163.235 720.954 156.934 713.01 148.99C705.066 141.046 698.765 131.616 694.466 121.237C690.167 110.858 687.954 99.734 687.954 88.5" stroke="#10130F" stroke-width="5.90857"/>
<path d="M174.954 89.5C174.954 78.266 177.167 67.142 181.466 56.7631C185.765 46.3842 192.066 36.9537 200.01 29.01C207.954 21.0664 217.384 14.7651 227.763 10.4661C238.142 6.16699 249.266 3.95429 260.5 3.95429C271.734 3.95429 282.858 6.16699 293.237 10.4661C303.616 14.7651 313.046 21.0664 320.99 29.01C328.934 36.9537 335.235 46.3842 339.534 56.7631C343.833 67.142 346.046 78.266 346.046 89.5" stroke="#10130F" stroke-width="5.90857"/>
<path d="M516.954 89.5C516.954 78.266 519.167 67.142 523.466 56.7631C527.765 46.3842 534.066 36.9537 542.01 29.01C549.954 21.0664 559.384 14.7651 569.763 10.4661C580.142 6.16699 591.266 3.95429 602.5 3.95429C613.734 3.95429 624.858 6.16699 635.237 10.4661C645.616 14.7651 655.046 21.0664 662.99 29.01C670.934 36.9537 677.235 46.3842 681.534 56.7631C685.833 67.142 688.046 78.266 688.046 89.5" stroke="#10130F" stroke-width="5.90857"/>
<path d="M859.954 89.5C859.954 78.266 862.167 67.142 866.466 56.7631C870.765 46.3842 877.066 36.9537 885.01 29.01C892.954 21.0664 902.384 14.7651 912.763 10.4661C923.142 6.16699 934.266 3.95429 945.5 3.95429C956.734 3.95429 967.858 6.16699 978.237 10.4661C988.616 14.7651 998.046 21.0664 1005.99 29.01C1013.93 36.9537 1020.23 46.3842 1024.53 56.7631C1028.83 67.142 1031.05 78.266 1031.05 89.5" stroke="#10130F" stroke-width="5.90857"/>
</svg>
