<svg width="1011" height="178" viewBox="0 0 1011 178" fill="none" xmlns="http://www.w3.org/2000/svg">
<path d="M994 40L950 66" stroke="#10130F" stroke-width="5.92"/>
<path d="M962 13L938 55" stroke="#10130F" stroke-width="5.92"/>
<path d="M923 4V52" stroke="#10130F" stroke-width="5.92"/>
<path d="M884 13L908 55" stroke="#10130F" stroke-width="5.92"/>
<path d="M852 40L897 67" stroke="#10130F" stroke-width="5.92"/>
<mask id="path-6-inside-1_0_14" fill="white">
<path d="M833 89.5C833 66.0283 842.377 43.518 859.067 26.9211C875.758 10.3241 898.396 1 922 1C945.604 1 968.242 10.3241 984.932 26.921C1001.62 43.518 1011 66.0283 1011 89.5L922 89.5L833 89.5Z"/>
</mask>
<path d="M833 89.5C833 66.0283 842.377 43.518 859.067 26.9211C875.758 10.3241 898.396 1 922 1C945.604 1 968.242 10.3241 984.932 26.921C1001.62 43.518 1011 66.0283 1011 89.5L922 89.5L833 89.5Z" stroke="#10130F" stroke-width="11.84" mask="url(#path-6-inside-1_0_14)"/>
<mask id="path-7-inside-2_0_14" fill="white">
<path d="M962 88.5C962 83.3128 960.978 78.1764 958.993 73.384C957.008 68.5916 954.099 64.2372 950.431 60.5693C946.763 56.9014 942.408 53.9918 937.616 52.0068C932.824 50.0217 927.687 49 922.5 49C917.313 49 912.176 50.0217 907.384 52.0068C902.592 53.9918 898.237 56.9014 894.569 60.5693C890.901 64.2372 887.992 68.5916 886.007 73.384C884.022 78.1764 883 83.3128 883 88.5L922.5 88.5H962Z"/>
</mask>
<path d="M962 88.5C962 83.3128 960.978 78.1764 958.993 73.384C957.008 68.5916 954.099 64.2372 950.431 60.5693C946.763 56.9014 942.408 53.9918 937.616 52.0068C932.824 50.0217 927.687 49 922.5 49C917.313 49 912.176 50.0217 907.384 52.0068C902.592 53.9918 898.237 56.9014 894.569 60.5693C890.901 64.2372 887.992 68.5916 886.007 73.384C884.022 78.1764 883 83.3128 883 88.5L922.5 88.5H962Z" stroke="#10130F" stroke-width="11.84" mask="url(#path-7-inside-2_0_14)"/>
<path d="M150.04 88.5C150.04 99.731 147.815 110.852 143.493 121.229C139.17 131.606 132.834 141.036 124.845 148.98C116.857 156.924 107.372 163.226 96.9315 167.526C86.4914 171.827 75.3012 174.04 64 174.04C52.6988 174.04 41.5086 171.827 31.0685 167.526C20.6284 163.226 11.1434 156.924 3.15462 148.98C-4.83414 141.036 -11.1703 131.606 -15.4929 121.229C-19.8154 110.852 -22.04 99.7309 -22.04 88.5" stroke="#10130F" stroke-width="5.92"/>
<path d="M493.04 88.5C493.04 99.731 490.815 110.852 486.493 121.229C482.17 131.606 475.834 141.036 467.845 148.98C459.857 156.924 450.372 163.226 439.932 167.526C429.491 171.827 418.301 174.04 407 174.04C395.699 174.04 384.509 171.827 374.068 167.526C363.628 163.226 354.143 156.924 346.155 148.98C338.166 141.036 331.83 131.606 327.507 121.229C323.185 110.852 320.96 99.7309 320.96 88.5" stroke="#10130F" stroke-width="5.92"/>
<path d="M837.04 88.5C837.04 99.731 834.815 110.852 830.493 121.229C826.17 131.606 819.834 141.036 811.845 148.98C803.857 156.924 794.372 163.226 783.932 167.526C773.491 171.827 762.301 174.04 751 174.04C739.699 174.04 728.509 171.827 718.068 167.526C707.628 163.226 698.143 156.924 690.155 148.98C682.166 141.036 675.83 131.606 671.507 121.229C667.185 110.852 664.96 99.7309 664.96 88.5" stroke="#10130F" stroke-width="5.92"/>
<path d="M148.96 89.5C148.96 78.269 151.185 67.1477 155.507 56.7707C159.83 46.3937 166.166 36.9639 174.155 29.02C182.143 21.0761 191.628 14.7737 202.068 10.4736C212.509 6.17346 223.699 3.96 235 3.96C246.301 3.96 257.491 6.17346 267.932 10.4736C278.372 14.7737 287.857 21.0761 295.845 29.02C303.834 36.9639 310.17 46.3937 314.493 56.7707C318.815 67.1477 321.04 78.2691 321.04 89.5" stroke="#10130F" stroke-width="5.92"/>
<path d="M492.96 89.5C492.96 78.269 495.185 67.1477 499.507 56.7707C503.83 46.3937 510.166 36.9639 518.155 29.02C526.143 21.0761 535.628 14.7737 546.068 10.4736C556.509 6.17346 567.699 3.96 579 3.96C590.301 3.96 601.491 6.17346 611.932 10.4736C622.372 14.7737 631.857 21.0761 639.845 29.02C647.834 36.9639 654.17 46.3937 658.493 56.7707C662.815 67.1477 665.04 78.2691 665.04 89.5" stroke="#10130F" stroke-width="5.92"/>
</svg>
