<svg width="191" height="82" viewBox="0 0 191 82" fill="none" xmlns="http://www.w3.org/2000/svg">
<path fill-rule="evenodd" clip-rule="evenodd" d="M24.5245 6.00565L34.3208 23.0034C35.81 22.3168 37.4357 21.8771 39.1445 21.7364V2.54232C33.9352 2.71257 28.9941 3.93578 24.5245 6.00565ZM41.6618 2.54232V21.7473C43.3784 21.9038 45.0092 22.3621 46.4999 23.069L56.323 6.02474C51.8425 3.94329 46.8872 2.71309 41.6618 2.54232ZM58.5736 7.16329L48.6722 24.3433C50.0282 25.3074 51.2104 26.5003 52.1628 27.8663L70.4156 17.3094C67.2208 13.1619 63.1886 9.6951 58.5736 7.16329ZM71.8938 19.3664L53.4185 30.0519C54.0982 31.5186 54.5393 33.1186 54.6921 34.8006H77.8686C77.0237 29.1529 74.9366 23.9125 71.8938 19.3664ZM78.1602 37.3224H54.703C54.5251 39.4897 53.8689 41.5235 52.8398 43.3151C52.2841 44.2826 51.62 45.1791 50.864 45.9882L54.566 51.1098L57.9894 47.212C59.8439 45.1006 63.1278 45.1006 64.9822 47.212L74.1796 57.684C76.8071 52.5195 78.289 46.672 78.289 40.4746C78.289 39.4129 78.2455 38.3616 78.1602 37.3224ZM72.8826 60.0249L63.0923 48.8778C62.2402 47.9077 60.7314 47.9077 59.8794 48.8778L34.3496 77.9456C36.3208 78.2627 38.3428 78.4274 40.4032 78.4274C54.1866 78.4274 66.2525 71.0544 72.8826 60.0249ZM31.4991 77.3734L38.7745 69.0898L20.8011 48.6256C19.949 47.6555 18.4402 47.6555 17.5882 48.6256L7.78326 59.7894C12.9245 68.4838 21.4285 74.9436 31.4991 77.3734ZM6.50004 57.4328L15.6982 46.9598C17.5527 44.8484 20.8366 44.8484 22.691 46.9598L26.2835 51.0501L29.8876 46.0638C29.1177 45.2515 28.4411 44.3494 27.8749 43.3745C26.8262 41.5684 26.1573 39.5136 25.9775 37.3224H2.64607C2.56082 38.3616 2.51733 39.4129 2.51733 40.4746C2.51733 46.5718 3.95165 52.3302 6.50004 57.4328ZM2.9377 34.8006H25.9884C26.1432 33.0968 26.5937 31.4772 27.2884 29.9951L8.91224 19.3668C5.86963 23.9128 3.78257 29.1531 2.9377 34.8006ZM10.3904 17.3098L28.5537 27.8149C29.5295 26.4282 30.7429 25.2216 32.135 24.2543L22.2724 7.14157C17.6407 9.67534 13.5944 13.1502 10.3904 17.3098ZM31.3951 43.9783L36.6311 36.7344C38.4904 34.1622 42.3159 34.1622 44.1752 36.7344L49.3541 43.8992C49.8442 43.3295 50.2813 42.713 50.6579 42.0575C51.6607 40.3116 52.2346 38.2871 52.2346 36.1245C52.2346 36.1054 52.2346 36.0863 52.2345 36.0675C52.2245 33.9262 51.6517 31.9216 50.6575 30.1909C49.6239 28.3917 48.1343 26.8877 46.3475 25.838C44.6008 24.8118 42.5695 24.2194 40.3973 24.2092C40.3782 24.2092 40.3592 24.2091 40.3402 24.2091C38.1962 24.2091 36.1882 24.7763 34.4536 25.7681C32.6296 26.811 31.107 28.3241 30.0513 30.1419C29.0396 31.8838 28.4561 33.9059 28.446 36.0674C28.4459 36.0864 28.4458 36.1054 28.4458 36.1245C28.4458 38.3073 29.0306 40.3494 30.0509 42.1064C30.4386 42.7741 30.8894 43.4008 31.3951 43.9783ZM27.9883 52.9912L40.451 67.181L52.8612 53.051L42.1362 38.2134C41.282 37.0316 39.5243 37.0315 38.6701 38.2134L27.9883 52.9912ZM22.1894 4.3365C27.6637 1.56236 33.8531 0 40.4032 0C46.9698 0 53.174 1.5703 58.6586 4.35764C64.495 7.32381 69.5146 11.6671 73.2923 16.9605C77.1914 22.424 79.7686 28.9013 80.5534 35.9212C80.7205 37.4163 80.8063 38.9357 80.8063 40.4746C80.8063 47.7574 78.8851 54.5945 75.5218 60.501C68.5684 72.7123 55.4468 80.9492 40.4032 80.9492C25.2578 80.9492 12.0605 72.6005 5.1442 60.2525C1.86781 54.4031 0 47.6554 0 40.4746C0 38.9357 0.0857955 37.4163 0.252952 35.9212C1.03774 28.9015 3.61476 22.4243 7.5137 16.9609C11.3004 11.6548 16.335 7.30324 22.1894 4.3365Z" fill="#10130F"/>
<path d="M105.318 20.6706V40.6065H102.674V23.1768H93.5196V40.6065H90.8756V20.6706H105.318Z" fill="#10130F"/>
<path d="M126.703 37.9579C124.713 39.9705 122.277 40.9768 119.396 40.9768C116.515 40.9768 114.08 39.9705 112.09 37.9579C110.1 35.9453 109.105 33.5055 109.105 30.6386C109.105 27.7526 110.1 25.3128 112.09 23.3192C114.08 21.3066 116.515 20.3003 119.396 20.3003C122.277 20.3003 124.713 21.3066 126.703 23.3192C128.712 25.3128 129.716 27.7526 129.716 30.6386C129.716 33.5055 128.712 35.9453 126.703 37.9579ZM113.909 36.1637C115.388 37.6446 117.217 38.3851 119.396 38.3851C121.576 38.3851 123.395 37.6446 124.855 36.1637C126.333 34.6637 127.072 32.822 127.072 30.6386C127.072 28.4361 126.333 26.5944 124.855 25.1135C123.395 23.6135 121.576 22.8635 119.396 22.8635C117.217 22.8635 115.388 23.6135 113.909 25.1135C112.45 26.5944 111.72 28.4361 111.72 30.6386C111.72 32.822 112.45 34.6637 113.909 36.1637Z" fill="#10130F"/>
<path d="M140.685 20.6706C142.523 20.6706 144.049 21.2877 145.262 22.5218C146.494 23.7369 147.11 25.2559 147.11 27.0786C147.11 28.8823 146.494 30.4012 145.262 31.6354C144.049 32.8695 142.523 33.4865 140.685 33.4865H136.107V40.6065H133.463V20.6706H140.685ZM140.685 31.0088C141.784 31.0088 142.694 30.6386 143.414 29.8981C144.134 29.1386 144.494 28.1988 144.494 27.0786C144.494 25.9394 144.134 24.9995 143.414 24.2591C142.694 23.5186 141.784 23.1483 140.685 23.1483H136.107V31.0088H140.685Z" fill="#10130F"/>
<path d="M164.723 40.6065L163.103 36.1352H154.148L152.527 40.6065H149.713L157.133 20.6706H160.118L167.538 40.6065H164.723ZM155.057 33.6574H162.193L158.611 23.8319L155.057 33.6574Z" fill="#10130F"/>
<path d="M185.859 30.2683C186.769 30.705 187.489 31.3316 188.02 32.148C188.569 32.9644 188.844 33.9043 188.844 34.9675C188.844 36.5624 188.285 37.9009 187.167 38.9832C186.049 40.0654 184.684 40.6065 183.073 40.6065H174.487V20.6706H182.448C184.002 20.6706 185.319 21.1927 186.399 22.237C187.48 23.2812 188.02 24.5723 188.02 26.1103C188.02 27.876 187.3 29.262 185.859 30.2683ZM182.448 23.1483H177.131V29.243H182.448C183.281 29.243 183.983 28.9488 184.551 28.3602C185.12 27.7716 185.404 27.0501 185.404 26.1957C185.404 25.3603 185.11 24.6483 184.523 24.0597C183.954 23.4521 183.262 23.1483 182.448 23.1483ZM183.073 38.1288C183.964 38.1288 184.712 37.8155 185.319 37.1889C185.925 36.5624 186.229 35.7934 186.229 34.8821C186.229 33.9897 185.916 33.2302 185.29 32.6037C184.684 31.9771 183.945 31.6638 183.073 31.6638H177.131V38.1288H183.073Z" fill="#10130F"/>
<path d="M105.318 45.3841V65.32H102.674V47.8903H93.5196V65.32H90.8756V45.3841H105.318Z" fill="#10130F"/>
<path d="M127.023 62.6714C125.033 64.6839 122.597 65.6902 119.716 65.6902C116.835 65.6902 114.4 64.6839 112.41 62.6714C110.42 60.6588 109.425 58.219 109.425 55.352C109.425 52.4661 110.42 50.0263 112.41 48.0327C114.4 46.0201 116.835 45.0138 119.716 45.0138C122.597 45.0138 125.033 46.0201 127.023 48.0327C129.032 50.0263 130.036 52.4661 130.036 55.352C130.036 58.219 129.032 60.6588 127.023 62.6714ZM114.229 60.8771C115.708 62.3581 117.537 63.0986 119.716 63.0986C121.896 63.0986 123.715 62.3581 125.175 60.8771C126.653 59.3772 127.392 57.5355 127.392 55.352C127.392 53.1496 126.653 51.3079 125.175 49.8269C123.715 48.327 121.896 47.577 119.716 47.577C117.537 47.577 115.708 48.327 114.229 49.8269C112.77 51.3079 112.04 53.1496 112.04 55.352C112.04 57.5355 112.77 59.3772 114.229 60.8771Z" fill="#10130F"/>
<path d="M147.317 65.32H144.304L139.414 57.4595L134.524 65.32H131.539L137.935 55.0672L131.908 45.3841H134.893L139.414 52.6464L143.934 45.3841H146.919L140.92 55.0387L147.317 65.32Z" fill="#10130F"/>
<path d="M166.419 62.6714C164.429 64.6839 161.993 65.6902 159.112 65.6902C156.231 65.6902 153.796 64.6839 151.806 62.6714C149.816 60.6588 148.821 58.219 148.821 55.352C148.821 52.4661 149.816 50.0263 151.806 48.0327C153.796 46.0201 156.231 45.0138 159.112 45.0138C161.993 45.0138 164.429 46.0201 166.419 48.0327C168.428 50.0263 169.432 52.4661 169.432 55.352C169.432 58.219 168.428 60.6588 166.419 62.6714ZM153.625 60.8771C155.104 62.3581 156.933 63.0986 159.112 63.0986C161.292 63.0986 163.111 62.3581 164.571 60.8771C166.049 59.3772 166.788 57.5355 166.788 55.352C166.788 53.1496 166.049 51.3079 164.571 49.8269C163.111 48.327 161.292 47.577 159.112 47.577C156.933 47.577 155.104 48.327 153.625 49.8269C152.166 51.3079 151.436 53.1496 151.436 55.352C151.436 57.5355 152.166 59.3772 153.625 60.8771Z" fill="#10130F"/>
<path d="M187.195 62.8138H189.327V69.1363H186.684V65.32H173.549V69.1363H170.905V62.8138H172.639C173.871 61.2758 174.487 58.9405 174.487 55.8077V45.3841H187.195V62.8138ZM175.624 62.8138H184.551V47.8618H177.131V55.8647C177.131 58.8835 176.629 61.1999 175.624 62.8138Z" fill="#10130F"/>
</svg>
