<svg width="638" height="419" viewBox="0 0 638 419" fill="none" xmlns="http://www.w3.org/2000/svg">
<path d="M50.2159 365.692L37.3221 386.02L37.4088 386.135C37.7631 385.807 38.2299 385.41 38.8093 384.943C39.3743 384.456 40.004 383.936 40.6984 383.382C41.3736 382.842 42.0752 382.298 42.8032 381.748L55.2461 372.359L57.0457 374.744L36.5278 390.227L33.6441 386.405L45.6849 367.397L45.5982 367.282L23.9306 373.53L21.0686 369.737L41.5864 354.254L43.5161 356.812L30.9008 366.331C30.2303 366.837 29.5621 367.326 28.8963 367.799C28.2113 368.285 27.567 368.727 26.9634 369.122C26.3406 369.532 25.8208 369.879 25.404 370.163L25.4908 370.278L48.6114 363.565L50.2159 365.692Z" fill="white"/>
<path d="M37.7767 348.451L19.3544 354.192L18.412 351.167L25.9734 348.811L24.485 344.033C23.9852 342.429 23.7695 341.051 23.8378 339.899C23.906 338.746 24.2512 337.796 24.8732 337.049C25.4723 336.31 26.3561 335.758 27.5247 335.394C28.6703 335.037 29.7456 334.978 30.7504 335.218C31.7481 335.435 32.6403 335.999 33.427 336.91C34.2065 337.799 34.8604 339.091 35.3887 340.786L37.7767 348.451ZM33.0341 341.822C32.6272 340.516 32.0775 339.518 31.3852 338.829C30.6699 338.147 29.7509 337.98 28.6281 338.33C27.5054 338.68 26.8671 339.294 26.7131 340.171C26.5363 341.056 26.6691 342.209 27.1118 343.629L28.4824 348.029L34.3941 346.187L33.0341 341.822ZM32.2083 330.578L13.786 336.319L12.8437 333.294L31.2659 327.554L32.2083 330.578Z" fill="white"/>
<path d="M20.6388 310.939L20.2455 304.219L23.1925 304.046L23.5857 310.767L20.6388 310.939Z" fill="white"/>
<path d="M14.0281 274.017L13.363 280.282L29.902 282.038L29.5714 285.153L13.0324 283.397L12.3749 289.59L9.72576 289.309L11.379 273.736L14.0281 274.017Z" fill="white"/>
<path d="M12.3626 268.552L13.2643 265.29L24.96 264.191C25.6485 264.133 26.3075 264.091 26.937 264.066C27.5728 264.017 28.1907 263.989 28.7906 263.981C29.3674 263.966 29.9231 263.982 30.4576 264.031L30.4959 263.892C29.956 263.593 29.265 263.165 28.4228 262.609C27.5576 262.046 26.6955 261.471 25.8366 260.885L16.3341 254.186L17.2454 250.89L36.1952 264.758C37.2303 265.517 38.0926 266.316 38.7822 267.154C39.5013 267.976 39.9739 268.878 40.1999 269.862C40.4555 270.829 40.417 271.914 40.0844 273.117C39.9309 273.672 39.7619 274.148 39.5774 274.545C39.416 274.949 39.2591 275.292 39.1065 275.573L36.6777 274.902C36.7943 274.66 36.9237 274.372 37.0659 274.038C37.2145 273.68 37.3431 273.305 37.4519 272.912C37.6501 272.195 37.6808 271.543 37.5439 270.958C37.4365 270.355 37.1796 269.799 36.773 269.288C36.3896 268.783 35.8976 268.311 35.2971 267.871L33.1022 266.219L12.3626 268.552Z" fill="white"/>
<path d="M22.9781 235.541C24.0876 233.439 25.7107 232.139 27.8475 231.639C29.9954 231.118 32.5443 231.636 35.4941 233.194C37.4253 234.214 38.9025 235.375 39.9256 236.675C40.9388 237.943 41.5047 239.287 41.6234 240.707C41.7321 242.094 41.411 243.499 40.6602 244.921C40.2006 245.791 39.6749 246.504 39.0828 247.06C38.4907 247.615 37.8854 248.042 37.2669 248.34C36.6383 248.605 36.0116 248.789 35.3866 248.894L35.2857 249.085C35.6689 249.233 36.1476 249.431 36.7218 249.68C37.2959 249.929 37.7846 250.16 38.1878 250.373L45.191 254.072L43.7116 256.873L19.0096 243.826L20.22 241.534L22.7455 242.38L22.8127 242.252C22.5039 241.655 22.2712 241.016 22.1146 240.336C21.9691 239.635 21.9534 238.894 22.0674 238.113C22.1926 237.311 22.4962 236.453 22.9781 235.541ZM25.0647 237.294C24.4595 238.44 24.1948 239.481 24.2706 240.417C24.3252 241.341 24.7035 242.192 25.4055 242.97C26.1075 243.748 27.1213 244.501 28.4471 245.228L28.9882 245.514C30.3889 246.254 31.6557 246.733 32.7888 246.951C33.9219 247.17 34.9281 247.064 35.8072 246.632C36.6976 246.18 37.4678 245.338 38.1178 244.107C38.667 243.067 38.8288 242.067 38.6032 241.106C38.3889 240.125 37.8777 239.217 37.0696 238.383C36.2515 237.516 35.2058 236.747 33.9325 236.074C31.9801 235.043 30.2186 234.601 28.6479 234.749C27.0884 234.875 25.894 235.724 25.0647 237.294Z" fill="white"/>
<path d="M43.7311 225.414C43.8876 225.563 44.1055 225.787 44.3846 226.085C44.6629 226.35 44.959 226.648 45.273 226.98C45.5695 227.295 45.8574 227.601 46.1365 227.9C46.3983 228.182 46.6079 228.414 46.7653 228.597L42.1693 209.971L44.8481 207.153L58.8323 220.449L56.7985 222.588L48.554 214.75C48.2757 214.485 47.9105 214.138 47.4582 213.708C47.0225 213.261 46.5955 212.822 46.1772 212.391C45.7416 211.943 45.4189 211.604 45.2093 211.371L49.8288 229.92L47.1253 232.764L33.141 219.469L35.1996 217.303L43.7311 225.414Z" fill="white"/>
<path d="M71.8825 211.959C70.4453 212.875 68.9731 213.4 67.4657 213.536C65.9785 213.658 64.5177 213.308 63.0835 212.486C61.6695 211.651 60.35 210.272 59.125 208.349C57.8485 206.345 57.1445 204.503 57.013 202.822C56.8815 201.142 57.1955 199.647 57.9551 198.338C58.7348 197.015 59.8534 195.89 61.3108 194.962C62.1406 194.433 62.9982 194.015 63.8834 193.707C64.7557 193.379 65.5121 193.181 66.1526 193.115L66.7448 195.853C66.143 195.981 65.4666 196.17 64.7158 196.421C63.9649 196.671 63.3061 196.977 62.7393 197.338C61.6463 198.035 60.8939 198.841 60.482 199.758C60.0702 200.675 59.9823 201.699 60.2185 202.829C60.4546 203.959 61.0046 205.202 61.8686 206.558C62.6938 207.854 63.5686 208.847 64.4929 209.539C65.4173 210.231 66.3718 210.59 67.3566 210.617C68.3413 210.644 69.3499 210.329 70.3821 209.671C71.2727 209.104 71.994 208.516 72.5459 207.909C73.118 207.288 73.6037 206.665 74.0028 206.041L75.5114 208.41C75.1454 209.041 74.6736 209.641 74.0959 210.208C73.5514 210.782 72.8135 211.366 71.8825 211.959Z" fill="white"/>
<path d="M85.7925 186.432L79.9393 188.762L86.0907 204.215L83.1809 205.373L77.0295 189.921L71.2433 192.225L70.258 189.75L84.8072 183.957L85.7925 186.432Z" fill="white"/>
<path d="M98.1662 192.316C98.2195 192.525 98.285 192.83 98.3625 193.232C98.4574 193.604 98.5495 194.014 98.6389 194.462C98.7224 194.886 98.8029 195.299 98.8804 195.7C98.952 196.078 99.0059 196.387 99.0419 196.625L105.06 178.409L108.828 177.448L113.595 196.146L110.734 196.876L107.924 185.852C107.829 185.48 107.704 184.992 107.55 184.387C107.419 183.777 107.291 183.178 107.166 182.59C107.036 181.98 106.943 181.52 106.889 181.212L100.932 199.375L97.1296 200.345L92.3625 181.647L95.2579 180.909L98.1662 192.316Z" fill="white"/>
<path d="M117.667 177.251C118.703 177.697 119.598 177.742 120.352 177.387C121.093 177.001 121.7 176.256 122.175 175.154C122.649 174.051 122.915 172.977 122.973 171.931C123.009 170.875 122.944 169.75 122.779 168.555L115.173 165.283L116.424 162.373L134.15 169.998L132.898 172.909L124.994 169.509C125.207 170.776 125.292 171.975 125.25 173.106C125.195 174.206 124.878 175.428 124.3 176.773C123.522 178.581 122.441 179.788 121.057 180.395C119.682 180.979 118.201 180.93 116.614 180.247L109.967 177.387L111.218 174.477L117.667 177.251Z" fill="white"/>
<path d="M118.695 148.866C118.921 147.225 119.472 145.872 120.346 144.806C121.223 143.715 122.358 142.952 123.751 142.514C125.124 142.05 126.678 141.937 128.413 142.177L130.303 142.438L128.495 155.526C130.665 155.777 132.393 155.459 133.679 154.571C134.944 153.655 135.708 152.246 135.971 150.344C136.138 149.132 136.179 148.047 136.093 147.091C135.987 146.107 135.789 145.086 135.499 144.028L138.245 144.408C138.538 145.442 138.714 146.447 138.773 147.424C138.855 148.405 138.806 149.549 138.626 150.857C138.376 152.663 137.786 154.217 136.855 155.518C135.928 156.795 134.685 157.726 133.126 158.31C131.547 158.867 129.699 159 127.583 158.707C125.491 158.418 123.744 157.825 122.342 156.929C120.942 156.009 119.926 154.863 119.291 153.491C118.66 152.096 118.461 150.554 118.695 148.866ZM121.257 149.256C121.05 150.754 121.374 152.01 122.227 153.024C123.059 154.012 124.32 154.707 126.009 155.11L127.354 145.374C126.26 145.223 125.286 145.258 124.432 145.479C123.578 145.7 122.877 146.125 122.33 146.752C121.763 147.352 121.405 148.186 121.257 149.256Z" fill="white"/>
<path d="M140.949 126.962C140.848 128.663 140.41 130.164 139.636 131.464C138.863 132.74 137.723 133.719 136.216 134.398C134.71 135.054 132.819 135.314 130.543 135.179C128.171 135.038 126.266 134.528 124.828 133.649C123.39 132.77 122.363 131.639 121.748 130.256C121.134 128.849 120.879 127.283 120.981 125.558C121.04 124.576 121.204 123.636 121.474 122.738C121.719 121.839 122.003 121.111 122.325 120.553L124.891 121.679C124.641 122.242 124.397 122.9 124.16 123.656C123.923 124.411 123.784 125.124 123.744 125.795C123.667 127.088 123.879 128.171 124.381 129.042C124.882 129.913 125.659 130.585 126.713 131.056C127.767 131.528 129.097 131.811 130.702 131.906C132.235 131.998 133.553 131.872 134.655 131.529C135.757 131.185 136.608 130.623 137.208 129.841C137.807 129.059 138.143 128.058 138.216 126.836C138.279 125.782 138.226 124.853 138.057 124.049C137.89 123.222 137.671 122.464 137.399 121.774L140.202 121.941C140.499 122.608 140.708 123.341 140.828 124.142C140.975 124.92 141.015 125.86 140.949 126.962Z" fill="white"/>
<path d="M122.39 102.012L122.556 98.5604L131.436 107.242L141.863 98.807L141.686 102.475L131.486 110.705L141.266 111.177L141.114 114.341L121.84 113.411L121.993 110.247L131.342 110.698L122.39 102.012Z" fill="white"/>
<path d="M134.996 90.2612C135.211 90.284 135.52 90.329 135.923 90.3961C136.305 90.4368 136.721 90.4932 137.172 90.5654C137.599 90.635 138.014 90.7034 138.417 90.7705C138.796 90.835 139.104 90.8919 139.34 90.9412L124.361 78.955L124.773 75.0888L143.961 77.133L143.648 80.0684L132.336 78.8633C131.954 78.8226 131.453 78.7692 130.833 78.7031C130.215 78.6131 129.609 78.5244 129.015 78.437C128.397 78.347 127.934 78.2736 127.626 78.2166L142.577 90.1275L142.161 94.0294L122.974 91.9852L123.29 89.014L134.996 90.2612Z" fill="white"/>
<path d="M124.369 45.2075C125.452 45.7321 126.283 46.3771 126.86 47.1427C127.447 47.8859 127.756 48.7788 127.789 49.8214C127.821 50.864 127.559 52.1011 127.002 53.5327C126.436 54.9865 125.789 56.0869 125.061 56.8337C124.342 57.5581 123.534 57.978 122.64 58.0935C121.723 58.2003 120.676 58.0765 119.501 57.7222L120.571 54.971C121.822 55.329 122.76 55.3335 123.386 54.9843C123.997 54.6041 124.529 53.8325 124.981 52.6694C125.381 51.6405 125.482 50.7526 125.283 50.0057C125.071 49.2277 124.405 48.5566 123.285 47.9923L124.369 45.2075ZM138.207 64.1496C138.409 64.228 138.695 64.3523 139.066 64.5226C139.424 64.6618 139.811 64.8252 140.228 65.0129C140.622 65.1919 141.004 65.3666 141.376 65.5369C141.725 65.6984 142.007 65.8339 142.222 65.9433L130.903 50.4537L132.313 46.8301L150.296 53.826L149.226 56.5773L138.624 52.4528C138.266 52.3136 137.796 52.1308 137.215 51.9046C136.642 51.656 136.08 51.4118 135.53 51.1719C134.957 50.9233 134.529 50.7312 134.247 50.5957L145.559 66.0052L144.136 69.6623L126.153 62.6664L127.236 59.8816L138.207 64.1496Z" fill="white"/>
<path d="M168.937 29.459L172.388 29.6423L163.663 38.48L172.048 48.9475L168.381 48.7527L160.2 38.5123L159.681 48.2905L156.518 48.1225L157.541 28.8536L160.705 29.0217L160.208 38.3685L168.937 29.459Z" fill="white"/>
<path d="M191.444 51.2303L188.273 50.7746L190.643 34.276L185.013 33.4671C184.342 36.45 183.674 38.9849 183.011 41.0717C182.351 43.1348 181.652 44.7923 180.915 46.0442C180.177 47.296 179.384 48.1761 178.535 48.6846C177.686 49.193 176.751 49.3739 175.729 49.2271C175.421 49.1827 175.115 49.1146 174.813 49.0227C174.532 48.958 174.302 48.8645 174.126 48.7422L174.464 46.3903C174.6 46.4583 174.749 46.5161 174.912 46.5638C175.075 46.6114 175.239 46.6472 175.406 46.6711C175.928 46.7462 176.434 46.6006 176.923 46.2344C177.412 45.8683 177.886 45.2696 178.345 44.4384C178.827 43.6106 179.307 42.552 179.783 41.2626C180.263 39.9495 180.741 38.3937 181.217 36.5952C181.694 34.7966 182.181 32.7572 182.678 30.4767L194.188 32.1303L191.444 51.2303Z" fill="white"/>
<path d="M199.508 33.5897L202.85 34.1224L205.246 45.6229C205.381 46.3007 205.496 46.9509 205.591 47.5736C205.71 48.2002 205.807 48.811 205.882 49.4063C205.961 49.9779 206.007 50.5319 206.018 51.0685L206.16 51.0911C206.397 50.5213 206.745 49.7869 207.204 48.888C207.667 47.9654 208.142 47.0446 208.629 46.1258L214.226 35.9359L217.604 36.4743L205.935 56.8515C205.296 57.9647 204.598 58.9107 203.842 59.6894C203.106 60.4956 202.262 61.0658 201.309 61.4C200.377 61.7617 199.294 61.8443 198.062 61.6479C197.493 61.5572 197.001 61.4423 196.586 61.3032C196.167 61.1878 195.809 61.07 195.512 60.9497L195.909 58.4612C196.162 58.5501 196.462 58.6466 196.81 58.7507C197.182 58.8586 197.569 58.9446 197.972 59.0088C198.707 59.126 199.358 59.0839 199.924 58.8826C200.511 58.7088 201.036 58.3914 201.498 57.9304C201.956 57.4931 202.371 56.9516 202.741 56.3059L204.139 53.9404L199.508 33.5897Z" fill="white"/>
<path d="M221.473 44.5216C221.885 41.7441 222.509 39.4225 223.344 37.5569C224.207 35.6712 225.306 34.233 226.642 33.2425C228.005 32.2318 229.642 31.6622 231.554 31.5336C233.146 31.4304 234.698 31.3575 236.208 31.315C237.719 31.2724 239.131 31.2395 240.445 31.2162L240.572 34.0375C239.941 34.0408 239.235 34.0572 238.454 34.0869C237.676 34.0927 236.885 34.1087 236.081 34.1348C235.28 34.1372 234.501 34.1549 233.744 34.1881C233.014 34.201 232.367 34.2263 231.804 34.2639C230.996 34.3137 230.253 34.4946 229.576 34.8065C228.902 35.0947 228.29 35.5376 227.741 36.1354C227.215 36.7366 226.749 37.5045 226.343 38.4391C225.938 39.3736 225.612 40.5021 225.367 41.8244L225.581 41.8562C225.98 41.4545 226.5 41.0585 227.14 40.6684C227.804 40.2817 228.565 39.9821 229.421 39.7696C230.301 39.5607 231.264 39.5338 232.308 39.6889C233.97 39.9357 235.292 40.5081 236.275 41.4062C237.285 42.2841 237.968 43.4046 238.324 44.7676C238.703 46.1342 238.766 47.6721 238.512 49.3813C238.198 51.4942 237.568 53.2081 236.62 54.5232C235.673 55.8383 234.493 56.755 233.082 57.2733C231.674 57.7678 230.104 57.8864 228.371 57.6291C227.065 57.4352 225.915 57.0096 224.921 56.3524C223.93 55.6715 223.129 54.7761 222.517 53.6662C221.906 52.5563 221.507 51.2355 221.322 49.7037C221.137 48.1719 221.187 46.4445 221.473 44.5216ZM229.006 55.0666C230.05 55.2217 230.984 55.142 231.807 54.8275C232.654 54.5166 233.364 53.9061 233.935 52.9963C234.507 52.0864 234.913 50.8243 235.153 49.21C235.442 47.2633 235.301 45.6775 234.731 44.4524C234.188 43.2072 233.086 42.4611 231.424 42.2143C230.379 42.0592 229.394 42.1556 228.469 42.5035C227.548 42.8276 226.758 43.2441 226.1 43.753C225.442 44.2619 224.965 44.7005 224.667 45.0688C224.495 46.232 224.41 47.372 224.414 48.4887C224.418 49.6054 224.557 50.6329 224.83 51.5712C225.13 52.4893 225.61 53.2642 226.268 53.8957C226.954 54.5071 227.866 54.8974 229.006 55.0666Z" fill="white"/>
<path d="M247.486 56.4256C246.799 57.5933 246.113 58.7491 245.429 59.8931C244.765 61.0639 244.088 62.2451 243.397 63.4366L240.72 63.0815C241.363 61.8837 241.993 60.6962 242.609 59.519C243.222 58.3656 243.849 57.2019 244.489 56.0279L247.486 56.4256Z" fill="white"/>
<path d="M285.727 44.9244L283.888 64.1326L281.057 63.8615L282.231 51.6056C282.279 51.1038 282.341 50.5794 282.417 50.0322C282.518 49.4873 282.617 48.9543 282.715 48.4333L282.608 48.423L274.858 63.2679L272.206 63.014L267.592 46.9853L267.485 46.9751C267.482 47.5052 267.455 48.0451 267.402 48.5945C267.373 49.1463 267.331 49.7089 267.277 50.2823L266.114 62.4307L263.283 62.1597L265.121 42.9515L269.314 43.3529L273.892 59.3782L281.534 44.523L285.727 44.9244Z" fill="white"/>
<path d="M293.619 65.1161L294.575 45.8438L297.739 46.0008L297.347 53.9111L302.345 54.1592C304.023 54.2424 305.391 54.5146 306.449 54.9756C307.508 55.4367 308.28 56.0878 308.767 56.9289C309.255 57.7462 309.469 58.766 309.408 59.9885C309.349 61.187 309.034 62.2166 308.462 63.0774C307.915 63.9393 307.078 64.5826 305.951 65.0073C304.849 65.4332 303.411 65.6021 301.637 65.514L293.619 65.1161ZM301.476 62.9469C302.842 63.0147 303.968 62.8423 304.854 62.4297C305.741 61.9931 306.213 61.1876 306.271 60.013C306.33 58.8385 305.973 58.0278 305.203 57.581C304.433 57.1103 303.305 56.8381 301.819 56.7643L297.217 56.5359L296.91 62.7202L301.476 62.9469ZM312.316 66.0441L313.272 46.7718L316.436 46.9288L315.48 66.2011L312.316 66.0441Z" fill="white"/>
<path d="M334.928 56.782L341.66 56.7752L341.663 59.7272L334.931 59.734L334.928 56.782Z" fill="white"/>
<path d="M371.8 45.7893L372.7 65.0642L369.536 65.2121L368.761 48.6342L358.8 49.0997L359.575 65.6776L356.41 65.8255L355.51 46.5506L371.8 45.7893Z" fill="white"/>
<path d="M398.458 53.4965C398.599 55.0983 398.51 56.5398 398.189 57.8209C397.89 59.0761 397.384 60.1688 396.671 61.0991C395.982 62.0273 395.096 62.7682 394.012 63.3216C392.951 63.849 391.739 64.1729 390.376 64.2932C389.109 64.4051 387.918 64.2934 386.805 63.958C385.689 63.5988 384.698 63.0237 383.833 62.2327C382.968 61.4417 382.255 60.4566 381.693 59.2774C381.153 58.0723 380.812 56.6688 380.671 55.067C380.483 52.9393 380.683 51.1146 381.272 49.593C381.858 48.0474 382.787 46.833 384.058 45.9498C385.327 45.0426 386.882 44.5078 388.723 44.3453C390.468 44.1912 392.033 44.4505 393.418 45.1234C394.824 45.7702 395.963 46.802 396.835 48.2188C397.729 49.6096 398.27 51.3688 398.458 53.4965ZM383.934 54.7789C384.067 56.285 384.375 57.583 384.856 58.6729C385.36 59.7367 386.056 60.5305 386.946 61.0543C387.835 61.5781 388.925 61.783 390.216 61.6691C391.507 61.5551 392.545 61.1623 393.329 60.4907C394.113 59.8192 394.648 58.9167 394.933 57.7832C395.24 56.6237 395.327 55.2908 395.194 53.7847C395.059 52.2546 394.741 50.9696 394.24 49.9297C393.738 48.8898 393.044 48.1199 392.157 47.62C391.291 47.0941 390.201 46.8892 388.886 47.0053C386.925 47.1784 385.56 47.9494 384.789 49.3185C384.019 50.6876 383.734 52.5077 383.934 54.7789Z" fill="white"/>
<path d="M412.328 41.7127C414.685 41.4107 416.683 41.9896 418.321 43.4491C419.984 44.9056 421.027 47.2884 421.451 50.5973C421.728 52.7636 421.63 54.6394 421.156 56.2245C420.702 57.7828 419.929 59.0191 418.836 59.9334C417.764 60.8208 416.431 61.3667 414.836 61.571C413.86 61.6961 412.974 61.6765 412.179 61.5122C411.383 61.348 410.686 61.0986 410.087 60.764C409.508 60.4026 408.996 59.9964 408.551 59.5453L408.337 59.5727C408.437 59.9713 408.55 60.477 408.677 61.0899C408.804 61.7027 408.896 62.2353 408.954 62.6876L409.96 70.5434L406.818 70.946L403.268 43.2365L405.839 42.907L406.602 45.4588L406.744 45.4405C407.055 44.8442 407.443 44.2863 407.909 43.7669C408.399 43.2445 408.996 42.805 409.7 42.4486C410.428 42.0892 411.304 41.8439 412.328 41.7127ZM412.095 44.4283C410.81 44.593 409.806 44.9757 409.085 45.5762C408.36 46.153 407.882 46.9523 407.65 47.974C407.418 48.9958 407.386 50.2581 407.554 51.7609L407.632 52.3679C407.833 53.9391 408.171 55.2508 408.644 56.3032C409.118 57.3555 409.784 58.1171 410.643 58.5877C411.525 59.0554 412.657 59.2007 414.038 59.0238C415.204 58.8744 416.115 58.431 416.771 57.6937C417.45 56.9533 417.898 56.0128 418.115 54.872C418.353 53.7043 418.38 52.4063 418.197 50.978C417.916 48.7879 417.264 47.0931 416.239 45.8936C415.238 44.691 413.857 44.2026 412.095 44.4283Z" fill="white"/>
<path d="M436.79 38.5152C439.109 38.1219 440.911 38.3397 442.196 39.1686C443.48 39.9974 444.311 41.524 444.688 43.7482L446.885 56.7033L444.614 57.0885L443.553 54.4934L443.411 54.5175C442.983 55.296 442.513 55.972 442.002 56.5456C441.51 57.0915 440.904 57.5351 440.183 57.8765C439.486 58.2139 438.605 58.4729 437.54 58.6535C436.404 58.8461 435.341 58.8195 434.349 58.5738C433.382 58.324 432.568 57.8292 431.907 57.0893C431.242 56.3258 430.801 55.3051 430.584 54.0274C430.263 52.1344 430.762 50.5528 432.08 49.2825C433.394 47.9885 435.593 47.0313 438.677 46.4109L441.889 45.7566L441.696 44.6208C441.427 43.0355 440.898 41.9934 440.107 41.4945C439.317 40.9957 438.294 40.8526 437.04 41.0653C436.046 41.2339 435.126 41.5482 434.279 42.0084C433.428 42.4448 432.644 42.9185 431.927 43.4296L430.572 41.2496C431.324 40.6595 432.242 40.1144 433.325 39.6141C434.405 39.0902 435.56 38.7239 436.79 38.5152ZM439.434 48.5098C437.084 49.0058 435.504 49.6633 434.694 50.4823C433.907 51.2974 433.616 52.3083 433.82 53.5151C434.001 54.5799 434.453 55.3065 435.176 55.6951C435.923 56.0796 436.805 56.1856 437.822 56.013C439.431 55.7401 440.694 55.0756 441.61 54.0195C442.523 52.9398 442.822 51.4771 442.509 49.6314L442.22 47.9277L439.434 48.5098Z" fill="white"/>
<path d="M477.301 35.1714C477.562 36.3426 477.414 37.3346 476.858 38.1472C476.301 38.9598 475.499 39.6061 474.45 40.0859L474.481 40.2265C475.689 40.1292 476.802 40.3235 477.82 40.8095C478.833 41.272 479.497 42.2061 479.81 43.6115C479.988 44.408 480 45.1798 479.847 45.927C479.717 46.669 479.403 47.3539 478.904 47.9817C478.404 48.6095 477.706 49.171 476.808 49.6664C475.905 50.1383 474.774 50.5257 473.416 50.8288L465.299 52.6393L461.099 33.8061L469.18 32.0034C470.516 31.7055 471.744 31.5913 472.866 31.6607C474.006 31.7014 474.959 32.0052 475.725 32.5721C476.509 33.1103 477.034 33.9768 477.301 35.1714ZM476.613 44.3248C476.372 43.2472 475.79 42.5657 474.866 42.2801C473.941 41.9945 472.683 42.0293 471.09 42.3846L466.487 43.4114L467.835 49.4549L472.508 48.4125C474.054 48.0676 475.187 47.5812 475.908 46.9533C476.623 46.3019 476.858 45.4257 476.613 44.3248ZM474.26 36.2555C474.061 35.3653 473.59 34.7943 472.845 34.5424C472.118 34.2619 471.029 34.2836 469.577 34.6075L464.763 35.6813L465.915 40.8464L470.167 39.898C471.689 39.5584 472.802 39.0889 473.504 38.4896C474.206 37.8903 474.458 37.1456 474.26 36.2555Z" fill="white"/>
<path d="M509.262 22.1494L514.441 40.7373L511.389 41.5878L506.935 25.6008L497.329 28.2778L501.783 44.2648L498.732 45.1153L493.552 26.5274L509.262 22.1494Z" fill="white"/>
<path d="M533.735 24.4393C534.22 25.9726 534.444 27.3993 534.408 28.7195C534.388 30.0095 534.131 31.1858 533.636 32.2484C533.164 33.3037 532.459 34.2188 531.521 34.9936C530.599 35.7384 529.485 36.3169 528.181 36.7293C526.968 37.1127 525.782 37.2612 524.622 37.1749C523.455 37.0657 522.363 36.7185 521.348 36.1334C520.332 35.5483 519.422 34.741 518.619 33.7114C517.831 32.6516 517.194 31.3551 516.71 29.8219C516.066 27.7852 515.867 25.9604 516.112 24.3475C516.35 22.7116 516.994 21.325 518.044 20.1875C519.087 19.0272 520.489 18.1685 522.251 17.6115C523.922 17.0833 525.506 16.9979 527.003 17.3552C528.516 17.6823 529.851 18.4432 531.009 19.6377C532.183 20.8021 533.091 22.4027 533.735 24.4393ZM519.833 28.8344C520.289 30.2761 520.87 31.4768 521.576 32.4366C522.298 33.3663 523.15 33.9906 524.131 34.3094C525.113 34.6283 526.222 34.5924 527.458 34.2018C528.693 33.8111 529.621 33.2031 530.241 32.3778C530.861 31.5525 531.188 30.5556 531.221 29.3872C531.27 28.1887 531.067 26.8685 530.611 25.4269C530.149 23.9623 529.56 22.7766 528.845 21.8698C528.131 20.963 527.286 20.3616 526.312 20.0656C525.353 19.7395 524.244 19.7754 522.985 20.1733C521.109 20.7665 519.943 21.8149 519.487 23.3183C519.031 24.8217 519.146 26.6604 519.833 28.8344Z" fill="white"/>
<path d="M548.563 20.739L541.447 11.6455L545.043 11.4687L550.362 18.4879L554.931 10.9825L558.491 10.8074L552.302 20.5551L559.798 30.0624L556.202 30.2393L550.574 22.8027L545.631 30.7591L542.071 30.9342L548.563 20.739Z" fill="white"/>
<path d="M582.466 23.965C582.138 25.539 581.634 26.8927 580.956 28.0259C580.306 29.1406 579.505 30.0398 578.554 30.7236C577.625 31.4122 576.562 31.8644 575.365 32.08C574.196 32.2771 572.942 32.2357 571.603 31.9559C570.358 31.6957 569.251 31.2437 568.282 30.6C567.318 29.9327 566.537 29.0952 565.938 28.0875C565.339 27.0797 564.942 25.9302 564.746 24.6388C564.578 23.3288 564.659 21.8868 564.988 20.3128C565.425 18.2219 566.145 16.5336 567.149 15.2478C568.158 13.9385 569.399 13.0454 570.872 12.5686C572.35 12.0682 573.993 12.007 575.802 12.385C577.517 12.7434 578.939 13.4452 580.069 14.4904C581.228 15.5171 582.019 16.8348 582.443 18.4435C582.895 20.0337 582.903 21.8742 582.466 23.965ZM568.195 20.9828C567.885 22.4629 567.803 23.7942 567.949 24.9769C568.122 26.1411 568.559 27.1027 569.258 27.8618C569.958 28.621 570.942 29.1331 572.211 29.3982C573.479 29.6632 574.586 29.588 575.531 29.1725C576.476 28.757 577.249 28.0482 577.851 27.0461C578.481 26.0254 578.95 24.775 579.26 23.295C579.574 21.7914 579.642 20.4693 579.463 19.3287C579.285 18.1881 578.843 17.2499 578.139 16.5143C577.463 15.7601 576.479 15.248 575.186 14.978C573.26 14.5754 571.73 14.9177 570.595 16.0046C569.461 17.0916 568.661 18.751 568.195 20.9828Z" fill="white"/>
<path d="M607.758 26.8841L598.28 40.5513L600.587 42.1517L595.253 49.8432L592.739 48.0992L596.555 42.5968L585.521 34.9438L581.705 40.4461L579.22 38.7227L584.554 31.0312L585.826 31.9134C587.609 31.2805 589.309 30.4296 590.926 29.3608C592.577 28.286 594.111 27.0425 595.528 25.6305C596.979 24.2125 598.275 22.7017 599.416 21.0982L607.758 26.8841ZM600.308 24.7397C599.299 26.0261 598.127 27.2729 596.794 28.48C595.474 29.6675 594.096 30.7274 592.661 31.6597C591.246 32.6057 589.865 33.3126 588.518 33.7805L595.765 38.8073L603.828 27.1813L600.308 24.7397Z" fill="white"/>
<path d="M604.094 47.5915C602.767 47.8665 601.45 48.1347 600.143 48.396C598.83 48.6908 597.5 48.9824 596.153 49.2711L594.618 47.0496C595.938 46.7214 597.24 46.3903 598.526 46.0561C599.793 45.7355 601.075 45.418 602.375 45.1035L604.094 47.5915Z" fill="white"/>
<path d="M627.419 79.1885L608.145 80.0924L608.011 77.2515L620.31 76.6748C620.813 76.6511 621.341 76.6384 621.894 76.6365C622.447 76.6586 622.989 76.6813 623.519 76.7045L623.514 76.5966L607.72 71.0303L607.595 68.3692L622.807 61.5291L622.802 61.4213C622.277 61.4939 621.739 61.5432 621.187 61.5691C620.637 61.6189 620.074 61.6573 619.499 61.6843L607.308 62.256L607.175 59.4151L626.45 58.5112L626.647 62.7186L611.433 69.5227L627.222 74.9811L627.419 79.1885Z" fill="white"/>
<path d="M607.118 85.9762L625.845 90.6296L625.081 93.7041L617.394 91.7941L616.188 96.6505C615.783 98.2809 615.252 99.571 614.596 100.521C613.939 101.471 613.152 102.103 612.232 102.419C611.336 102.74 610.295 102.753 609.107 102.458C607.942 102.169 606.993 101.661 606.258 100.934C605.518 100.231 605.048 99.2858 604.848 98.0986C604.643 96.9347 604.754 95.491 605.182 93.7674L607.118 85.9762ZM607.732 94.1043C607.403 95.4319 607.355 96.57 607.589 97.5185C607.846 98.4727 608.546 99.0916 609.687 99.3752C610.828 99.6588 611.693 99.4655 612.28 98.7953C612.89 98.1308 613.374 97.0765 613.733 95.6324L614.844 91.1604L608.835 89.6672L607.732 94.1043ZM602.604 104.144L621.331 108.797L620.567 111.872L601.841 107.218L602.604 104.144Z" fill="white"/>
<path d="M604.684 127.317L602.477 133.677L599.688 132.71L601.895 126.349L604.684 127.317Z" fill="white"/>
<path d="M601.692 163.943L600.433 167.161L594.786 156.1L582.214 160.769L583.551 157.349L595.843 152.803L586.724 149.236L587.878 146.285L605.848 153.315L604.694 156.265L595.978 152.855L601.692 163.943Z" fill="white"/>
<path d="M582.427 185.61C580.95 184.976 579.723 184.214 578.746 183.325C577.782 182.467 577.06 181.504 576.578 180.435C576.087 179.389 575.854 178.257 575.88 177.041C575.918 175.856 576.207 174.635 576.747 173.378C577.249 172.209 577.911 171.213 578.734 170.391C579.579 169.579 580.554 168.979 581.66 168.592C582.767 168.205 583.972 168.043 585.277 168.107C586.594 168.202 587.991 168.567 589.469 169.201C591.432 170.044 592.944 171.084 594.005 172.323C595.089 173.572 595.718 174.965 595.894 176.503C596.092 178.051 595.826 179.673 595.098 181.372C594.407 182.982 593.437 184.237 592.189 185.138C590.953 186.07 589.505 186.584 587.844 186.681C586.196 186.81 584.39 186.452 582.427 185.61ZM588.177 172.212C586.788 171.615 585.499 171.271 584.311 171.179C583.136 171.119 582.107 171.356 581.224 171.891C580.341 172.426 579.645 173.29 579.133 174.481C578.622 175.672 578.477 176.771 578.697 177.78C578.917 178.788 579.459 179.687 580.322 180.475C581.197 181.295 582.33 182.003 583.719 182.599C585.131 183.205 586.413 183.534 587.567 183.585C588.72 183.636 589.727 183.389 590.587 182.844C591.461 182.331 592.157 181.468 592.678 180.255C593.454 178.446 593.422 176.878 592.581 175.551C591.74 174.224 590.272 173.111 588.177 172.212Z" fill="white"/>
<path d="M579.434 214.719L561.823 206.833L562.985 204.237L574.222 209.269C574.682 209.475 575.159 209.702 575.653 209.95C576.137 210.219 576.611 210.484 577.073 210.743L577.117 210.645L565.53 198.553L566.619 196.122L583.281 196.878L583.325 196.779C582.824 196.607 582.321 196.408 581.817 196.183C581.304 195.979 580.784 195.759 580.258 195.524L569.12 190.536L570.282 187.94L587.893 195.827L586.172 199.671L569.525 198.882L581.155 210.875L579.434 214.719Z" fill="white"/>
<path d="M574.65 229.553C573.848 231.764 572.771 233.224 571.416 233.933C570.062 234.642 568.324 234.612 566.203 233.844L553.849 229.367L554.634 227.201L557.414 227.558L557.463 227.422C556.997 226.666 556.64 225.924 556.394 225.197C556.161 224.5 556.074 223.753 556.133 222.958C556.183 222.185 556.392 221.29 556.76 220.275C557.152 219.192 557.7 218.28 558.402 217.539C559.096 216.82 559.928 216.356 560.898 216.146C561.89 215.944 562.995 216.063 564.214 216.505C566.019 217.159 567.149 218.373 567.604 220.146C568.082 221.927 567.831 224.312 566.85 227.301L565.836 230.418L566.919 230.81C568.431 231.358 569.599 231.411 570.422 230.969C571.246 230.527 571.875 229.708 572.308 228.513C572.651 227.565 572.831 226.609 572.849 225.645C572.889 224.69 572.863 223.774 572.772 222.899L575.337 222.794C575.479 223.739 575.501 224.807 575.402 225.996C575.325 227.194 575.075 228.379 574.65 229.553ZM564.651 226.925C565.378 224.636 565.585 222.937 565.272 221.828C564.951 220.741 564.215 219.99 563.064 219.573C562.049 219.205 561.194 219.24 560.499 219.677C559.796 220.137 559.269 220.852 558.918 221.823C558.362 223.357 558.317 224.783 558.784 226.101C559.274 227.427 560.399 228.409 562.159 229.047L563.783 229.636L564.651 226.925Z" fill="white"/>
<path d="M569.322 245.352L561.429 243.886L559.517 254.186L567.41 255.652L566.832 258.766L547.86 255.243L548.438 252.129L556.898 253.699L558.81 243.399L550.351 241.829L550.929 238.714L569.901 242.237L569.322 245.352Z" fill="white"/>
<path d="M564.725 280.056L548.102 279.505L548.009 282.311L538.654 282L538.755 278.942L545.447 279.164L545.893 265.744L539.201 265.522L539.301 262.499L548.656 262.81L548.604 264.357C550.103 265.511 551.74 266.478 553.515 267.257C555.313 268.062 557.19 268.676 559.145 269.101C561.123 269.551 563.095 269.821 565.061 269.91L564.725 280.056ZM562.486 272.634C560.858 272.484 559.175 272.176 557.437 271.71C555.724 271.245 554.086 270.662 552.525 269.962C550.962 269.286 549.619 268.509 548.496 267.631L548.203 276.446L562.343 276.916L562.486 272.634Z" fill="white"/>
<path d="M565.64 295.386C565.645 297.738 565.132 299.479 564.102 300.609C563.072 301.739 561.429 302.306 559.173 302.311L546.033 302.336L546.029 300.032L548.764 299.415L548.764 299.271C548.066 298.72 547.477 298.145 546.996 297.546C546.539 296.971 546.202 296.3 545.984 295.532C545.767 294.789 545.657 293.877 545.655 292.797C545.653 291.645 545.855 290.6 546.261 289.664C546.667 288.751 547.29 288.03 548.129 287.5C548.992 286.97 550.071 286.704 551.367 286.702C553.287 286.698 554.765 287.451 555.8 288.961C556.859 290.471 557.439 292.798 557.541 295.942L557.655 299.218L558.807 299.215C560.415 299.212 561.531 298.862 562.153 298.165C562.776 297.468 563.086 296.483 563.084 295.211C563.082 294.203 562.924 293.243 562.61 292.332C562.32 291.421 561.983 290.569 561.597 289.778L563.971 288.801C564.429 289.64 564.815 290.636 565.129 291.787C565.467 292.938 565.638 294.138 565.64 295.386ZM555.346 296.342C555.245 293.942 554.858 292.275 554.184 291.34C553.51 290.43 552.562 289.975 551.338 289.978C550.258 289.98 549.466 290.305 548.963 290.954C548.461 291.627 548.21 292.48 548.212 293.512C548.216 295.144 548.662 296.499 549.552 297.577C550.466 298.655 551.859 299.193 553.731 299.189L555.459 299.186L555.346 296.342Z" fill="white"/>
<path d="M104.727 392C86.5675 388.497 48.9496 367.879 43.7518 313.431C37.2544 245.372 73.7394 208.84 119.72 199.832C165.702 190.824 123.719 60.2105 174.198 62.2123C224.677 64.214 344.628 106.251 519.056 47.1991C550.21 42.0279 606.42 50.9023 582.03 127.769C551.543 223.853 530.051 227.857 532.051 291.412C534.05 354.968 508.06 367.979 545.045 392" stroke="white" stroke-width="8"/>
</svg>
