<svg width="139" height="60" viewBox="0 0 139 60" fill="none" xmlns="http://www.w3.org/2000/svg">
<path fill-rule="evenodd" clip-rule="evenodd" d="M18.0053 4.45142L25.1976 17.0503C26.2909 16.5414 27.4844 16.2154 28.739 16.1111V1.88438C24.9144 2.01057 21.2868 2.91722 18.0053 4.45142ZM30.5872 1.88438V16.1192C31.8474 16.2352 33.0448 16.5749 34.1392 17.0989L41.3511 4.46557C38.0616 2.92279 34.4235 2.01096 30.5872 1.88438ZM43.0034 5.30947L35.734 18.0434C36.7296 18.758 37.5975 19.6422 38.2968 20.6547L51.6976 12.8298C49.352 9.75567 46.3916 7.18606 43.0034 5.30947ZM52.7828 14.3545L39.2187 22.2747C39.7177 23.3618 40.0415 24.5477 40.1537 25.7944H57.1694C56.5491 21.6083 55.0167 17.7241 52.7828 14.3545ZM57.3835 27.6636H40.1617C40.0311 29.27 39.5493 30.7774 38.7938 32.1054C38.3858 32.8225 37.8982 33.487 37.3432 34.0867L40.0612 37.8829L42.5745 34.9938C43.936 33.4288 46.347 33.4288 47.7085 34.9938L54.461 42.7557C56.3901 38.9278 57.478 34.5935 57.478 30C57.478 29.213 57.4461 28.4338 57.3835 27.6636ZM53.5088 44.4908L46.3209 36.2285C45.6954 35.5094 44.5876 35.5094 43.9621 36.2285L25.2187 57.7737C26.6659 58.0087 28.1504 58.1308 29.6631 58.1308C39.7826 58.1308 48.6411 52.6659 53.5088 44.4908ZM23.1259 57.3496L28.4673 51.2098L15.2717 36.0416C14.6461 35.3225 13.5384 35.3225 12.9129 36.0416L5.7143 44.3162C9.48891 50.7605 15.7323 55.5486 23.1259 57.3496ZM4.77218 42.5695L11.5253 34.8069C12.8868 33.2419 15.2978 33.2419 16.6593 34.8069L19.2967 37.8386L21.9428 34.1428C21.3776 33.5407 20.8808 32.872 20.4651 32.1494C19.6952 30.8107 19.2041 29.2877 19.0721 27.6636H1.94269C1.8801 28.4338 1.84817 29.213 1.84817 30C1.84817 34.5193 2.90122 38.7875 4.77218 42.5695ZM2.15679 25.7944H19.0801C19.1937 24.5315 19.5245 23.3311 20.0345 22.2325L6.54317 14.3548C4.30935 17.7243 2.77708 21.6084 2.15679 25.7944ZM7.62839 12.8301L20.9634 20.6166C21.6799 19.5887 22.5708 18.6944 23.5928 17.9774L16.3519 5.29337C12.9514 7.17142 9.98073 9.74703 7.62839 12.8301ZM23.0495 32.597L26.8938 27.2277C28.2588 25.3212 31.0674 25.3212 32.4324 27.2277L36.2346 32.5383C36.5945 32.1161 36.9154 31.6591 37.1919 31.1732C37.9281 29.8792 38.3495 28.3786 38.3495 26.7757C38.3495 26.7615 38.3494 26.7474 38.3494 26.7334C38.342 25.1463 37.9215 23.6605 37.1916 22.3776C36.4328 21.0441 35.3391 19.9293 34.0273 19.1513C32.7449 18.3907 31.2536 17.9516 29.6588 17.944C29.6448 17.944 29.6308 17.9439 29.6169 17.9439C28.0428 17.9439 26.5686 18.3643 25.2951 19.0994C23.9559 19.8725 22.8381 20.994 22.063 22.3414C21.3202 23.6324 20.8918 25.1312 20.8844 26.7334C20.8843 26.7474 20.8843 26.7615 20.8843 26.7757C20.8843 28.3936 21.3136 29.9072 22.0627 31.2095C22.3473 31.7044 22.6783 32.1689 23.0495 32.597ZM20.5484 39.2774L29.6982 49.7949L38.8095 39.3217L30.9355 28.324C30.3083 27.448 29.0179 27.448 28.3907 28.324L20.5484 39.2774ZM16.291 3.21423C20.3101 1.15803 24.8542 0 29.6631 0C34.4842 0 39.0392 1.16392 43.0658 3.2299C47.3508 5.42845 51.0361 8.64773 53.8096 12.5712C56.6722 16.6208 58.5643 21.4218 59.1405 26.625C59.2632 27.7332 59.3262 28.8593 59.3262 30C59.3262 35.3981 57.9157 40.4657 55.4464 44.8437C50.3414 53.8948 40.7078 60 29.6631 60C18.5437 60 8.85457 53.8119 3.77676 44.6595C1.3713 40.3238 0 35.3225 0 30C0 28.8593 0.0629891 27.7332 0.185711 26.625C0.761885 21.422 2.65388 16.621 5.51639 12.5715C8.29649 8.63857 11.9928 5.4132 16.291 3.21423Z" fill="white"/>
<path d="M77.322 15.3212V30.0978H75.3809V17.1788H68.66V30.0978H66.7189V15.3212H77.322Z" fill="white"/>
<path d="M93.0223 28.1346C91.5613 29.6263 89.7732 30.3722 87.6581 30.3722C85.5431 30.3722 83.755 29.6263 82.2939 28.1346C80.8328 26.6429 80.1023 24.8345 80.1023 22.7095C80.1023 20.5704 80.8328 18.762 82.2939 17.2843C83.755 15.7926 85.5431 15.0467 87.6581 15.0467C89.7732 15.0467 91.5613 15.7926 93.0223 17.2843C94.4973 18.762 95.2348 20.5704 95.2348 22.7095C95.2348 24.8345 94.4973 26.6429 93.0223 28.1346ZM83.6297 26.8047C84.7151 27.9024 86.0579 28.4512 87.6581 28.4512C89.2583 28.4512 90.5942 27.9024 91.6656 26.8047C92.751 25.6929 93.2937 24.3279 93.2937 22.7095C93.2937 21.077 92.751 19.7119 91.6656 18.6142C90.5942 17.5025 89.2583 16.9466 87.6581 16.9466C86.0579 16.9466 84.7151 17.5025 83.6297 18.6142C82.5583 19.7119 82.0226 21.077 82.0226 22.7095C82.0226 24.3279 82.5583 25.6929 83.6297 26.8047Z" fill="white"/>
<path d="M103.287 15.3212C104.637 15.3212 105.757 15.7785 106.648 16.6933C107.552 17.5939 108.005 18.7198 108.005 20.0708C108.005 21.4077 107.552 22.5336 106.648 23.4483C105.757 24.363 104.637 24.8204 103.287 24.8204H99.927V30.0978H97.9859V15.3212H103.287ZM103.287 22.9839C104.095 22.9839 104.762 22.7095 105.291 22.1606C105.82 21.5977 106.084 20.9011 106.084 20.0708C106.084 19.2264 105.82 18.5298 105.291 17.9809C104.762 17.4321 104.095 17.1577 103.287 17.1577H99.927V22.9839H103.287Z" fill="white"/>
<path d="M120.936 30.0978L119.747 26.7836H113.172L111.982 30.0978H109.916L115.363 15.3212H117.555L123.003 30.0978H120.936ZM113.84 24.9471H119.079L116.449 17.6643L113.84 24.9471Z" fill="white"/>
<path d="M136.454 22.435C137.121 22.7587 137.65 23.2231 138.04 23.8283C138.443 24.4334 138.645 25.13 138.645 25.9181C138.645 27.1002 138.235 28.0924 137.414 28.8945C136.593 29.6967 135.591 30.0978 134.408 30.0978H128.105V15.3212H133.949C135.09 15.3212 136.057 15.7082 136.85 16.4822C137.643 17.2562 138.04 18.2132 138.04 19.3531C138.04 20.6618 137.511 21.6892 136.454 22.435ZM133.949 17.1577H130.046V21.6751H133.949C134.561 21.6751 135.076 21.457 135.493 21.0207C135.911 20.5844 136.12 20.0497 136.12 19.4164C136.12 18.7972 135.904 18.2694 135.473 17.8332C135.055 17.3828 134.547 17.1577 133.949 17.1577ZM134.408 28.2613C135.062 28.2613 135.612 28.0291 136.057 27.5646C136.502 27.1002 136.725 26.5303 136.725 25.8548C136.725 25.1933 136.495 24.6304 136.036 24.166C135.591 23.7016 135.048 23.4694 134.408 23.4694H130.046V28.2613H134.408Z" fill="white"/>
<path d="M77.322 33.6389V48.4155H75.3809V35.4965H68.66V48.4155H66.7189V33.6389H77.322Z" fill="white"/>
<path d="M93.2571 46.4524C91.7961 47.9441 90.008 48.69 87.8929 48.69C85.7779 48.69 83.9898 47.9441 82.5287 46.4524C81.0677 44.9606 80.3371 43.1522 80.3371 41.0272C80.3371 38.8881 81.0677 37.0798 82.5287 35.6021C83.9898 34.1104 85.7779 33.3645 87.8929 33.3645C90.008 33.3645 91.7961 34.1104 93.2571 35.6021C94.7321 37.0798 95.4696 38.8881 95.4696 41.0272C95.4696 43.1522 94.7321 44.9606 93.2571 46.4524ZM83.8646 45.1225C84.9499 46.2202 86.2927 46.769 87.8929 46.769C89.4931 46.769 90.829 46.2202 91.9004 45.1225C92.9858 44.0107 93.5285 42.6456 93.5285 41.0272C93.5285 39.3948 92.9858 38.0297 91.9004 36.932C90.829 35.8202 89.4931 35.2643 87.8929 35.2643C86.2927 35.2643 84.9499 35.8202 83.8646 36.932C82.7931 38.0297 82.2574 39.3948 82.2574 41.0272C82.2574 42.6456 82.7931 44.0107 83.8646 45.1225Z" fill="white"/>
<path d="M108.157 48.4155H105.944L102.354 42.5893L98.7644 48.4155H96.5728L101.269 40.8161L96.8441 33.6389H99.0357L102.354 39.0218L105.673 33.6389H107.865L103.461 40.795L108.157 48.4155Z" fill="white"/>
<path d="M122.181 46.4524C120.72 47.9441 118.932 48.69 116.817 48.69C114.702 48.69 112.914 47.9441 111.453 46.4524C109.991 44.9606 109.261 43.1522 109.261 41.0272C109.261 38.8881 109.991 37.0798 111.453 35.6021C112.914 34.1104 114.702 33.3645 116.817 33.3645C118.932 33.3645 120.72 34.1104 122.181 35.6021C123.656 37.0798 124.393 38.8881 124.393 41.0272C124.393 43.1522 123.656 44.9606 122.181 46.4524ZM112.788 45.1225C113.874 46.2202 115.216 46.769 116.817 46.769C118.417 46.769 119.753 46.2202 120.824 45.1225C121.91 44.0107 122.452 42.6456 122.452 41.0272C122.452 39.3948 121.91 38.0297 120.824 36.932C119.753 35.8202 118.417 35.2643 116.817 35.2643C115.216 35.2643 113.874 35.8202 112.788 36.932C111.717 38.0297 111.181 39.3948 111.181 41.0272C111.181 42.6456 111.717 44.0107 112.788 45.1225Z" fill="white"/>
<path d="M137.435 46.5579H139V51.2442H137.059V48.4155H127.416V51.2442H125.475V46.5579H126.748C127.652 45.418 128.105 43.687 128.105 41.365V33.6389H137.435V46.5579ZM128.939 46.5579H135.493V35.4754H130.046V41.4072C130.046 43.6448 129.677 45.3617 128.939 46.5579Z" fill="white"/>
</svg>
